# xmcd
#
# Track frame offsets:
#	150
#	20282
#	34015
#	55318
#	74011
#	90917
#	111303
#	127309
#	144272
#	162037
#	181743
#	200300
#	220286
#	238971
#	258578
#
# Disc length: 3677 seconds
#
# Revision: 2
# Processed by: cddbd v1.5PL3 Copyright (c) Steve Scherf et al.
# Submitted via: MusicWizard 6.0.2
#
DISCID=d80e5b0f
DTITLE=Various Artist - Las Grandes Sesiones De La Salsa 2 [CD1 - 4) [CD 2/4)
DYEAR=2003
DGENRE=Salsa/Merengue
TTITLE0=Grupo Galé - Tributo Al Conde
TTITLE1=Jhonny Ray - Todavia No
TTITLE2=Cuco Valoy - La Vida Parrandera
TTITLE3=Los Hermanos Moreno - Una Miradita
TTITLE4=Kim De Los Santos - Mira Lo Que Has Hecho
TTITLE5=Puerto Rican Power - Se Te Fue La Mano
TTITLE6=Harvey - Me Hace Falta
TTITLE7=Corrine - Si Me Ves Llorar
TTITLE8=Carlos Oliva - Amigo Mio
TTITLE9=Luisito Rosario - Júarame
TTITLE10=Ray Cruz - Pepe Machete
TTITLE11=Roberto Torres - No Aprietes Tanto
TTITLE12=Willie Colón - Cayo Condón
TTITLE13=José Alberto "El Canario" - Quiero Salsa
TTITLE14=Nite and Day - Yo No Sé
EXTD=
EXTT0=
EXTT1=
EXTT2=
EXTT3=
EXTT4=
EXTT5=
EXTT6=
EXTT7=
EXTT8=
EXTT9=
EXTT10=
EXTT11=
EXTT12=
EXTT13=
EXTT14=
PLAYORDER=
